<svg width="263" height="55" viewBox="0 0 263 55" fill="none" xmlns="http://www.w3.org/2000/svg">
<rect x="263" y="55" width="263" height="55" transform="rotate(-180 263 55)" fill="#BFFFC7"/>
<mask id="mask0_583_250" style="mask-type:alpha" maskUnits="userSpaceOnUse" x="0" y="0" width="263" height="55">
<rect x="263" y="55" width="263" height="55" transform="rotate(-180 263 55)" fill="#D9D9D9"/>
</mask>
<g mask="url(#mask0_583_250)">
<path d="M-383.964 45.4807C-383.964 50.5833 -379.478 54.7241 -373.95 54.7241L1.75299 54.7241C23.4381 54.7241 44.637 48.8611 62.7592 37.8681L116.381 5.31062C127.08 -1.18439 140.944 -1.14774 151.594 5.41139L203.022 37.0528C221.75 48.5771 243.753 54.7241 266.262 54.7241L1126.99 54.7241C1132.51 54.7241 1137 50.5833 1137 45.4808L1137 -187.329C1137 -188.428 1136.83 -189.491 1136.52 -190.499L1136.52 -454.098C1136.52 -493.945 1134.43 -458.413 1131.85 -458.413L-378.833 -458.413C-381.413 -458.413 -383.507 -456.48 -383.507 -454.098L-383.507 -190.499C-383.805 -189.491 -383.984 -188.428 -383.984 -187.329L-383.984 45.4807L-383.964 45.4807Z" fill="#072A24"/>
</g>
</svg>
