<svg width="49" height="49" viewBox="0 0 49 49" fill="none" xmlns="http://www.w3.org/2000/svg">
<mask id="mask0_427_296" style="mask-type:alpha" maskUnits="userSpaceOnUse" x="0" y="0" width="49" height="49">
<rect x="0.630676" y="0.890381" width="48" height="48" fill="#D9D9D9"/>
</mask>
<g mask="url(#mask0_427_296)">
<path fill-rule="evenodd" clip-rule="evenodd" d="M39.8627 21.9098C40.0454 22.9104 40.1354 23.911 40.1354 24.8904C40.1354 25.8698 40.0454 26.8704 39.8627 27.8736L44.7889 32.1433L40.1142 40.1321L33.9015 38.0595C32.3186 39.3751 30.5583 40.3863 28.6524 41.0692L27.3712 47.3904H18.0483L16.7672 41.0666C14.8798 40.3863 13.0904 39.3592 11.5207 38.0568L5.30538 40.1295L0.630676 32.1407L5.55684 27.871C5.37419 26.8704 5.28419 25.8698 5.28419 24.8904C5.28419 23.911 5.37419 22.9104 5.55686 21.9098L0.630676 17.6401L5.3054 9.65127L11.5181 11.7213C13.101 10.4057 14.8586 9.39449 16.7672 8.71157L18.0483 2.39038H27.3713L28.6524 8.71419C30.5398 9.39449 32.3292 10.4216 33.8989 11.7239L40.1142 9.65127L44.7889 17.6401L39.8627 21.9098ZM15.3179 24.8903C15.3179 20.7012 18.5214 17.4977 22.7105 17.4977C26.8997 17.4977 30.1031 20.7012 30.1031 24.8903C30.1031 29.0795 26.8997 32.2829 22.7105 32.2829C18.5214 32.2829 15.3179 29.0795 15.3179 24.8903Z" fill="#072A24"/>
</g>
</svg>
