<svg width="363" height="255" viewBox="0 0 363 255" fill="none" xmlns="http://www.w3.org/2000/svg">
<rect width="84.1531" height="371.632" rx="29" transform="matrix(2.92919e-08 -1 -1 -6.52292e-08 352.399 254.347)" fill="url(#paint0_linear_488_662)"/>
<rect width="84.1531" height="310.16" rx="28.0784" transform="matrix(2.92919e-08 -1 -1 -6.52292e-08 197.32 170.759)" fill="url(#paint1_linear_488_662)"/>
<rect width="84.1531" height="310.16" rx="3" transform="matrix(2.92919e-08 -1 -1 -6.52292e-08 256.088 86.606)" fill="url(#paint2_linear_488_662)"/>
<circle cx="320.401" cy="212.27" r="42.0765" fill="white"/>
<circle cx="164.126" cy="128.682" r="42.0765" fill="#BFFFC7"/>
<rect x="254.638" y="0.478516" width="62.4063" height="62.4063" rx="4.88084" transform="rotate(45 254.638 0.478516)" fill="white"/>
<defs>
<linearGradient id="paint0_linear_488_662" x1="42.0766" y1="-197.644" x2="42.0765" y2="371.632" gradientUnits="userSpaceOnUse">
<stop stop-color="white"/>
<stop offset="1" stop-color="white" stop-opacity="0"/>
</linearGradient>
<linearGradient id="paint1_linear_488_662" x1="42.0766" y1="-210.855" x2="42.0765" y2="310.16" gradientUnits="userSpaceOnUse">
<stop stop-color="#BFFFC7"/>
<stop offset="1" stop-color="#BFFFC7" stop-opacity="0"/>
</linearGradient>
<linearGradient id="paint2_linear_488_662" x1="42.0766" y1="-169.954" x2="42.0765" y2="310.16" gradientUnits="userSpaceOnUse">
<stop stop-color="white"/>
<stop offset="1" stop-color="white" stop-opacity="0"/>
</linearGradient>
</defs>
</svg>
