<svg width="48" height="46" viewBox="0 0 48 46" fill="none" xmlns="http://www.w3.org/2000/svg">
<path fill-rule="evenodd" clip-rule="evenodd" d="M44.9001 18.7888H2.99333C1.65082 18.7888 0.472939 17.8953 0.111493 16.6022C-0.25145 15.3098 0.29259 13.9337 1.43979 13.237L22.3932 0.515346C22.8706 0.224994 23.4087 0.0805664 23.9467 0.0805664C24.4848 0.0805664 25.0228 0.224994 25.501 0.515346L46.4544 13.237C47.6016 13.9337 48.1449 15.3091 47.7827 16.6022C47.4205 17.8953 46.2426 18.7888 44.9001 18.7888ZM27.6884 10.5572C27.6884 8.4903 26.0136 6.81554 23.9467 6.81554C21.8798 6.81554 20.2051 8.4903 20.2051 10.5572C20.2051 12.6241 21.8798 14.2988 23.9467 14.2988C26.0136 14.2988 27.6884 12.6241 27.6884 10.5572ZM7.4833 20.0364H13.47V38.7447H7.4833V20.0364ZM22.4496 20.0364H16.4629V38.7447H22.4496V20.0364ZM25.4432 20.0364H31.4299V38.7447H25.4432V20.0364ZM34.4229 20.0364H40.4095V38.7447H34.4229V20.0364ZM2.99332 45.0806H44.9001C44.9001 42.2704 43.5598 39.9919 41.9068 39.9919H5.98666C4.33359 39.9919 2.99332 42.2704 2.99332 45.0806Z" fill="#072A24"/>
</svg>
