<svg width="263" height="55" viewBox="0 0 263 55" fill="none" xmlns="http://www.w3.org/2000/svg">
<rect width="263" height="55" fill="white"/>
<mask id="mask0_583_250" style="mask-type:alpha" maskUnits="userSpaceOnUse" x="0" y="0" width="263" height="55">
<rect width="263" height="55" fill="#D9D9D9"/>
</mask>
<g mask="url(#mask0_583_250)">
<path d="M646.964 9.51929C646.964 4.41673 642.478 0.275944 636.95 0.275944L261.247 0.275927C239.562 0.275926 218.363 6.13889 200.241 17.1319L146.619 49.6894C135.92 56.1844 122.056 56.1477 111.406 49.5886L59.9776 17.9472C41.25 6.42286 19.2473 0.275916 -3.26155 0.275915L-863.986 0.275877C-869.514 0.275877 -874 4.41666 -874 9.51923L-874 242.329C-874 243.428 -873.831 244.491 -873.524 245.499L-873.524 509.098C-873.524 548.945 -871.43 513.413 -868.849 513.413L641.833 513.413C644.413 513.413 646.507 511.48 646.507 509.098L646.507 245.499C646.805 244.491 646.984 243.428 646.984 242.329L646.984 9.51929L646.964 9.51929Z" fill="#DDFFE1"/>
</g>
</svg>
