<svg width="40" height="46" viewBox="0 0 40 46" fill="none" xmlns="http://www.w3.org/2000/svg">
<path fill-rule="evenodd" clip-rule="evenodd" d="M4.53937 31.8609H35.4693C37.6544 31.8609 39.4257 30.0896 39.4257 27.9046V4.03693C39.4257 1.85189 37.6544 0.0805664 35.4693 0.0805664H4.53937C2.35433 0.0805664 0.583008 1.85189 0.583008 4.03693V27.9046C0.583008 30.0896 2.35433 31.8609 4.53937 31.8609ZM26.5023 15.4098C26.5715 15.789 26.6056 16.1681 26.6056 16.5392C26.6056 16.9103 26.5715 17.2895 26.5023 17.6696L28.3689 19.2875L26.5976 22.3146L24.2435 21.5293C23.6437 22.0278 22.9767 22.4109 22.2545 22.6697L21.7691 25.0649H18.2365L17.751 22.6687C17.0359 22.4109 16.3579 22.0218 15.7631 21.5283L13.408 22.3136L11.6367 19.2865L13.5033 17.6686C13.4341 17.2895 13.4 16.9103 13.4 16.5392C13.4 16.1681 13.4341 15.789 13.5033 15.4098L11.6367 13.7919L13.408 10.7648L15.7621 11.5492C16.3619 11.0507 17.0279 10.6675 17.751 10.4088L18.2365 8.01353H21.7691L22.2545 10.4097C22.9697 10.6675 23.6477 11.0567 24.2425 11.5502L26.5976 10.7648L28.3689 13.7919L26.5023 15.4098Z" fill="#072A24"/>
<rect x="12.8174" y="33.5037" width="14.3729" height="7.39176" fill="#072A24"/>
<rect x="10.1484" y="42.5378" width="19.7114" height="2.54272" fill="#072A24"/>
<circle cx="20.0043" cy="15.9706" r="2.95157" fill="#072A24"/>
</svg>
