<svg width="403" height="147" viewBox="0 0 403 147" fill="none" xmlns="http://www.w3.org/2000/svg">
<rect x="0.478516" y="0.127686" width="402" height="146" fill="#072A24"/>
<path d="M149.268 57.2995V114.771C149.268 115.459 148.712 116.015 148.024 116.015H139.381C137.326 116.015 136.008 115.086 135.428 113.222L134.887 111.069C134.661 110.169 133.565 109.815 132.872 110.43C132.149 111.064 131.412 111.669 130.659 112.239C129.381 113.208 128.014 114.043 126.559 114.741C125.104 115.44 123.536 115.985 121.849 116.369C120.163 116.752 118.329 116.949 116.353 116.949C113.098 116.949 110.198 116.388 107.661 115.263C105.119 114.137 103 112.568 101.294 110.553C99.5884 108.537 98.2905 106.133 97.4007 103.341C96.5059 100.548 96.0635 97.4852 96.0635 94.152V57.3044C96.0635 56.6161 96.619 56.0606 97.3073 56.0606H110.871C111.56 56.0606 112.115 56.6161 112.115 57.3044V94.152C112.115 97.4852 112.882 100.076 114.411 101.915C115.94 103.758 118.221 104.678 121.245 104.678C123.491 104.678 125.605 104.181 127.582 103.193C129.411 102.279 131.161 101.054 132.827 99.5255C133.083 99.2895 133.226 98.9552 133.226 98.6062V57.2995C133.226 56.6112 133.781 56.0557 134.47 56.0557H148.034C148.722 56.0557 149.277 56.6112 149.277 57.2995H149.268Z" fill="#BFFFC7"/>
<path d="M175.766 60.9719C175.978 61.8765 177.084 62.2453 177.782 61.6307C178.505 61.0014 179.247 60.4016 180.004 59.8363C181.302 58.8678 182.679 58.032 184.134 57.3339C185.589 56.6358 187.157 56.095 188.844 55.7066C190.53 55.3182 192.364 55.1265 194.34 55.1265C197.595 55.1265 200.485 55.6869 203.003 56.8128C205.525 57.9386 207.644 59.5069 209.369 61.5226C211.095 63.5382 212.393 65.9423 213.268 68.7348C214.143 71.5272 214.575 74.5901 214.575 77.9233V114.771C214.575 115.459 214.02 116.015 213.332 116.015H199.827C199.138 116.015 198.583 115.459 198.583 114.771V77.9233C198.583 74.5901 197.806 71.9992 196.257 70.1605C194.704 68.3169 192.418 67.3975 189.394 67.3975C187.143 67.3975 185.034 67.8842 183.057 68.8527C181.223 69.7524 179.473 70.9864 177.807 72.5498C177.556 72.7858 177.418 73.1152 177.418 73.4593V114.771C177.418 115.459 176.863 116.015 176.174 116.015H162.61C161.922 116.015 161.366 115.459 161.366 114.771V57.2995C161.366 56.6112 161.922 56.0556 162.61 56.0556H171.253C173.239 56.0556 174.567 56.9602 175.235 58.7596C175.255 58.8137 175.275 58.8727 175.289 58.9317L175.771 60.967L175.766 60.9719Z" fill="#BFFFC7"/>
<path d="M240.553 60.9719C240.765 61.8765 241.871 62.2453 242.569 61.6307C243.292 61.0014 244.034 60.4016 244.791 59.8363C246.089 58.8678 247.465 58.032 248.921 57.3339C250.376 56.6358 251.944 56.095 253.63 55.7066C255.317 55.3182 257.151 55.1265 259.127 55.1265C262.381 55.1265 265.272 55.6869 267.789 56.8128C270.311 57.9386 272.43 59.5069 274.156 61.5226C275.882 63.5382 277.179 65.9423 278.055 68.7348C278.93 71.5272 279.362 74.5901 279.362 77.9233V114.771C279.362 115.459 278.807 116.015 278.119 116.015H264.613C263.925 116.015 263.37 115.459 263.37 114.771V77.9233C263.37 74.5901 262.593 71.9992 261.044 70.1605C259.491 68.3169 257.205 67.3975 254.181 67.3975C251.929 67.3975 249.82 67.8842 247.844 68.8527C246.01 69.7524 244.26 70.9864 242.593 72.5498C242.343 72.7858 242.205 73.1152 242.205 73.4593V114.771C242.205 115.459 241.649 116.015 240.961 116.015H227.397C226.709 116.015 226.153 115.459 226.153 114.771V57.2995C226.153 56.6112 226.709 56.0556 227.397 56.0556H236.04C238.026 56.0556 239.354 56.9602 240.022 58.7596C240.042 58.8137 240.062 58.8727 240.076 58.9317L240.558 60.967L240.553 60.9719Z" fill="#BFFFC7"/>
<path d="M305.119 88.5081C304.372 88.5081 303.787 89.1718 303.88 89.9141C304.509 94.8206 306.058 98.4636 308.526 100.838C311.22 103.434 314.74 104.737 319.081 104.737C321.293 104.737 323.201 104.476 324.809 103.95C326.416 103.429 327.832 102.844 329.056 102.205C330.276 101.566 331.382 100.986 332.37 100.46C333.358 99.9335 334.336 99.673 335.305 99.673C336.544 99.673 337.517 100.14 338.215 101.069L342.207 106.059C342.596 106.546 342.561 107.244 342.134 107.696C340.624 109.314 338.987 110.681 337.222 111.797C335.167 113.094 333.034 114.122 330.826 114.879C328.619 115.636 326.387 116.157 324.14 116.447C321.893 116.737 319.72 116.885 317.626 116.885C313.437 116.885 309.534 116.197 305.906 114.82C302.277 113.443 299.121 111.408 296.427 108.714C293.733 106.02 291.609 102.677 290.06 98.6799C288.507 94.6878 287.735 90.0518 287.735 84.7815C287.735 80.7108 288.404 76.8712 289.741 73.2676C291.078 69.6639 293.005 66.5224 295.527 63.848C298.049 61.1735 301.112 59.0497 304.716 57.4814C308.319 55.9131 312.39 55.1265 316.928 55.1265C320.767 55.1265 324.302 55.7361 327.542 56.9602C330.777 58.1795 333.569 59.9543 335.915 62.2797C338.26 64.6051 340.084 67.4664 341.381 70.8586C342.679 74.2508 343.328 78.1199 343.328 82.461C343.328 83.6655 343.269 84.6537 343.156 85.4256C343.038 86.2023 342.846 86.8218 342.576 87.2888C342.306 87.7559 341.937 88.0754 341.47 88.2475C341.003 88.4245 340.403 88.5081 339.666 88.5081H305.114H305.119ZM327.68 78.9705C328.397 78.9705 328.978 78.3658 328.924 77.6529C328.835 76.4632 328.629 75.3078 328.304 74.2017C327.857 72.6875 327.149 71.3502 326.18 70.19C325.212 69.0248 323.988 68.1055 322.518 67.427C321.043 66.7486 319.278 66.4093 317.228 66.4093C313.388 66.4093 310.384 67.4958 308.216 69.6639C306.323 71.5567 305.006 74.1574 304.263 77.4612C304.091 78.233 304.691 78.9705 305.483 78.9705H327.69H327.68Z" fill="#BFFFC7"/>
<path d="M368.283 30.55V114.771C368.283 115.459 367.728 116.015 367.04 116.015H353.476C352.787 116.015 352.232 115.459 352.232 114.771V30.55C352.232 29.8617 352.787 29.3062 353.476 29.3062H367.04C367.728 29.3062 368.283 29.8617 368.283 30.55Z" fill="#BFFFC7"/>
<path d="M106.225 46.6655H87.6616C83.0501 46.6655 79.3088 50.4018 79.3088 55.0182V114.5C79.3088 115.218 78.7287 115.803 78.006 115.803H64.2109C63.4931 115.803 62.9081 115.223 62.9081 114.5V55.0182C62.9081 50.4067 59.1717 46.6655 54.5553 46.6655H35.9766C35.2588 46.6655 34.6738 46.0853 34.6738 45.3626V32.3836C34.6738 31.6658 35.2539 31.0808 35.9766 31.0808H56.5021C58.0311 31.0808 59.5355 31.3905 60.9268 31.9756C61.9838 32.423 62.9228 33.1014 63.7144 33.9273L68.9895 39.409C69.491 39.9301 70.1448 40.2989 70.8577 40.3726C71.0691 40.3923 71.2805 40.3972 71.4919 40.3726C72.2097 40.3038 72.8635 39.935 73.365 39.4238L78.7828 33.8782C79.5792 33.067 80.5133 32.3935 81.5654 31.9559C82.9469 31.3807 84.4365 31.0808 85.9458 31.0808H106.216C106.933 31.0808 107.518 31.6609 107.518 32.3836V45.3626C107.518 46.0804 106.938 46.6655 106.216 46.6655H106.225Z" fill="#BFFFC7"/>
</svg>
