<svg width="54" height="59" viewBox="0 0 54 59" fill="none" xmlns="http://www.w3.org/2000/svg">
<path d="M25 13.9998L25 11.9998L25 13.9998ZM9.00001 43.3331L9.43387 41.3808C8.53799 41.1817 7.62158 41.6179 7.21116 42.4387L9.00001 43.3331ZM0.544489 55.772C0.0505106 56.76 0.450959 57.9613 1.43892 58.4553C2.42687 58.9493 3.62822 58.5488 4.1222 57.5609L0.544489 55.772ZM23.6667 56.6665L21.7264 57.1515C21.949 58.0419 22.7489 58.6665 23.6667 58.6665V56.6665ZM38.3333 58.6665C39.4379 58.6665 40.3333 57.771 40.3333 56.6665C40.3333 55.5619 39.4379 54.6665 38.3333 54.6665V58.6665ZM3.03559 26.7938C2.00135 26.406 0.848525 26.93 0.460685 27.9642C0.0728449 28.9985 0.596856 30.1513 1.6311 30.5391L3.03559 26.7938ZM39.6667 33.9998L39.9955 35.9726C40.3416 35.9149 40.6665 35.7671 40.9375 35.5442L39.6667 33.9998ZM48.9908 28.9175C49.8437 28.2157 49.9662 26.9553 49.2644 26.1023C48.5626 25.2494 47.3022 25.1269 46.4492 25.8287L48.9908 28.9175ZM8.71717 1.35323C7.6237 1.50944 6.8639 2.5225 7.02011 3.61597C7.17632 4.70944 8.18939 5.46924 9.28285 5.31303L8.71717 1.35323ZM50.1719 19.3285C50.9057 20.1541 52.1698 20.2284 52.9954 19.4946C53.821 18.7608 53.8953 17.4966 53.1615 16.6711L50.1719 19.3285ZM25 29.3331C27.2986 29.3331 29.503 28.42 31.1283 26.7947L28.2998 23.9663C27.4247 24.8415 26.2377 25.3331 25 25.3331V29.3331ZM31.1283 26.7947C32.7536 25.1694 33.6667 22.965 33.6667 20.6665H29.6667C29.6667 21.9041 29.175 23.0911 28.2998 23.9663L31.1283 26.7947ZM33.6667 20.6665C33.6667 18.3679 32.7536 16.1635 31.1283 14.5382L28.2998 17.3666C29.175 18.2418 29.6667 19.4288 29.6667 20.6665H33.6667ZM31.1283 14.5382C29.503 12.9129 27.2986 11.9998 25 11.9998L25 15.9998C26.2377 15.9998 27.4247 16.4915 28.2998 17.3666L31.1283 14.5382ZM25 11.9998C22.7015 11.9998 20.4971 12.9129 18.8718 14.5382L21.7002 17.3666C22.5753 16.4915 23.7623 15.9998 25 15.9998L25 11.9998ZM18.8718 14.5382C17.2464 16.1635 16.3333 18.3679 16.3333 20.6665H20.3333C20.3333 19.4288 20.825 18.2418 21.7002 17.3666L18.8718 14.5382ZM16.3333 20.6665C16.3333 22.965 17.2464 25.1694 18.8718 26.7947L21.7002 23.9663C20.825 23.0911 20.3333 21.9041 20.3333 20.6665H16.3333ZM18.8718 26.7947C20.4971 28.42 22.7015 29.3331 25 29.3331V25.3331C23.7623 25.3331 22.5753 24.8415 21.7002 23.9663L18.8718 26.7947ZM21.7436 36.117L19.077 45.4504L22.9231 46.5492L25.5897 37.2159L21.7436 36.117ZM21.4339 44.0474L9.43387 41.3808L8.56615 45.2855L20.5662 47.9522L21.4339 44.0474ZM7.21116 42.4387L0.544489 55.772L4.1222 57.5609L10.7889 44.2276L7.21116 42.4387ZM19.0597 46.4849L21.7264 57.1515L25.607 56.1814L22.9403 45.5147L19.0597 46.4849ZM23.6667 58.6665H38.3333V54.6665H23.6667V58.6665ZM1.6311 30.5391L22.9644 38.5391L24.3689 34.7938L3.03559 26.7938L1.6311 30.5391ZM23.9955 38.6392L39.9955 35.9726L39.3379 32.027L23.3379 34.6937L23.9955 38.6392ZM40.9375 35.5442L48.9908 28.9175L46.4492 25.8287L38.3959 32.4554L40.9375 35.5442ZM9.28285 5.31303C18.3612 4.01612 26.0243 4.67981 32.6607 7.04995C39.2927 9.41851 45.0221 13.535 50.1719 19.3285L53.1615 16.6711C47.6446 10.4646 41.374 5.91441 34.006 3.28298C26.6424 0.653118 18.3055 -0.0165297 8.71717 1.35323L9.28285 5.31303Z" fill="#0E2C72"/>
</svg>
