<svg width="64" height="62" viewBox="0 0 64 62" fill="none" xmlns="http://www.w3.org/2000/svg">
<path d="M32 0.999769C23.78 0.740935 15.7933 3.75479 9.79355 9.37956C3.7938 15.0043 0.271474 22.7802 0 30.9998C0.271474 39.2193 3.7938 46.9952 9.79355 52.62C15.7933 58.2447 23.78 61.2586 32 60.9998C40.22 61.2586 48.2067 58.2447 54.2064 52.62C60.2062 46.9952 63.7285 39.2193 64 30.9998C63.7285 22.7802 60.2062 15.0043 54.2064 9.37956C48.2067 3.75479 40.22 0.740935 32 0.999769ZM58.84 28.1998L53.92 26.9998C52.92 26.7198 52.84 26.6398 52.76 26.5198C52.16 25.7198 51.48 24.6398 50.84 23.5998C50.84 23.2398 50.32 22.6798 50.2 22.3598C50.08 22.0398 51.6 19.9598 52.24 18.9998C52.9299 18.2825 53.7258 17.6754 54.6 17.1998C56.9258 20.4462 58.3851 24.2322 58.84 28.1998ZM32 5.99977L31.64 6.67977C31.6043 6.54883 31.6043 6.41071 31.64 6.27977C31.64 6.51977 31.04 6.87977 30.64 7.27977L29.44 8.43977C28.8927 9.01032 28.5614 9.75377 28.503 10.5422C28.4446 11.3307 28.6628 12.1148 29.12 12.7598H28.64C28.0084 12.778 27.389 12.9386 26.828 13.2294C26.267 13.5203 25.7789 13.934 25.4 14.4398C24.9578 15.0493 24.6566 15.7495 24.5182 16.4897C24.3798 17.2299 24.4078 17.9917 24.6 18.7198V18.9998C24.0166 19.1038 23.4417 19.2508 22.88 19.4398L21.92 19.7598L19.36 20.5998C18.5972 20.8232 17.9019 21.2326 17.3364 21.7911C16.7709 22.3496 16.3529 23.0398 16.12 23.7998C15.934 24.4375 15.9097 25.1115 16.0493 25.761C16.189 26.4105 16.4882 27.0149 16.92 27.5198C18.5221 29.2513 20.3845 30.7224 22.44 31.8798C24.4519 33.2203 26.7312 34.1074 29.12 34.4798H35.84C36.6492 34.4411 37.4551 34.6079 38.1824 34.9646C38.9098 35.3213 39.5351 35.8563 40 36.5198C40.2175 36.7442 40.3783 37.0175 40.4687 37.3167C40.5592 37.6159 40.5768 37.9324 40.52 38.2398C40.4404 38.7493 40.2341 39.2307 39.92 39.6398C37.9296 41.2678 36.5827 43.5503 36.12 46.0798C35.6018 47.9599 34.9604 49.8039 34.2 51.5998C33.72 52.8398 33.28 54.0398 32.96 54.9998C31.6182 55.0963 30.2694 54.9884 28.96 54.6798C29.2788 51.7078 28.5732 48.7161 26.96 46.1998C25.6148 44.6103 24.8652 42.6019 24.84 40.5198C25.0985 38.5446 24.65 36.5416 23.5739 34.8652C22.4978 33.1889 20.8635 31.9471 18.96 31.3598C14.4818 28.5765 10.5505 24.9976 7.36 20.7998C9.67157 16.275 13.206 12.4894 17.5617 9.87315C21.9174 7.2569 26.9197 5.91494 32 5.99977ZM5 30.9998C4.99924 29.4407 5.1601 27.8857 5.48 26.3598C8.76364 30.29 12.7519 33.5728 17.24 36.0398C19.64 36.9198 20 37.8398 20 40.5198C20.0089 43.8632 21.2312 47.0898 23.44 49.5998C24.0299 51.3349 24.2213 53.1806 24 54.9998C18.6541 53.6094 13.9072 50.5143 10.4786 46.1834C7.04996 41.8525 5.12661 36.5221 5 30.9998ZM38.28 55.3198C38.28 54.7198 38.76 54.0398 39 53.3998C39.9093 51.331 40.6452 49.1903 41.2 46.9998C41.5133 45.6431 42.2742 44.4314 43.36 43.5598C44.7598 42.1837 45.5762 40.3216 45.64 38.3598C45.689 37.4296 45.5476 36.4993 45.2243 35.6257C44.901 34.7522 44.4027 33.9539 43.76 33.2798C42.7979 32.0994 41.574 31.1595 40.1853 30.5346C38.7967 29.9097 37.2815 29.617 35.76 29.6798H29.4C26.4127 28.8705 23.6671 27.3467 21.4 25.2398L23.28 24.5998L24.36 24.2798C24.8357 24.0621 25.358 23.9658 25.88 23.9998L26.24 24.5998C26.5394 25.1612 27.037 25.591 27.636 25.8054C28.235 26.0199 28.8924 26.0036 29.48 25.7598C30.0617 25.4884 30.5225 25.0113 30.7736 24.4205C31.0247 23.8298 31.0483 23.167 30.84 22.5598V21.8398C30.4 20.6398 29.88 18.9598 29.56 17.8398C30.5975 17.8833 31.6271 17.6416 32.5369 17.1409C33.4466 16.6401 34.2017 15.8996 34.72 14.9998C34.9683 14.3295 35.0325 13.605 34.9059 12.9015C34.7793 12.198 34.4665 11.5414 34 10.9998C34.4707 10.5773 34.9118 10.1229 35.32 9.63977C35.6872 9.20044 35.9557 8.6874 36.1075 8.13534C36.2594 7.58328 36.2909 7.00506 36.2 6.43977C41.791 7.2628 46.9969 9.77502 51.12 13.6398C49.9095 14.379 48.8396 15.327 47.96 16.4398C47.0071 17.8323 46.1517 19.2891 45.4 20.7998C45.0773 21.7322 44.9961 22.7311 45.164 23.7034C45.3319 24.6757 45.7433 25.5896 46.36 26.3598C47.08 27.5998 47.88 28.7998 48.6 29.7998C49.5924 31.0506 51.0215 31.8795 52.6 32.1198C53.48 32.3598 56.6 32.9998 58.8 33.4398C58.0927 38.7728 55.7334 43.7506 52.0533 47.6747C48.3731 51.5987 43.5568 54.2721 38.28 55.3198Z" fill="#0E2C72"/>
</svg>
