<svg width="42" height="58" viewBox="0 0 42 58" fill="none" xmlns="http://www.w3.org/2000/svg">
<path d="M21 0.195312L18.375 3.13531C18.375 3.13531 13.895 8.21031 9.38 14.7903C4.865 21.3703 0 29.2453 0 36.8053C0 42.3749 2.21249 47.7163 6.15076 51.6546C10.089 55.5928 15.4305 57.8053 21 57.8053C26.5695 57.8053 31.911 55.5928 35.8492 51.6546C39.7875 47.7163 42 42.3749 42 36.8053C42 29.2453 37.135 21.3703 32.62 14.7903C29.8352 10.7451 26.8324 6.85437 23.625 3.13531L21 0.195312ZM21 11.1503C22.54 12.9703 23.94 14.4753 26.88 18.7453C31.115 24.9053 35 32.7453 35 36.8053C35 44.5753 28.77 50.8053 21 50.8053C13.23 50.8053 7 44.5753 7 36.8053C7 32.7453 10.885 24.9053 15.12 18.7453C18.06 14.4753 19.46 12.9703 21 11.1503Z" fill="#0E2C72"/>
</svg>
