<svg width="64" height="62" viewBox="0 0 64 62" fill="none" xmlns="http://www.w3.org/2000/svg">
<path d="M16.1253 24C18.2471 24 20.2819 23.1571 21.7822 21.6569M16.1253 24C14.0036 24 11.9688 23.1571 10.4685 21.6569M16.1253 24V30M21.7822 21.6569C23.2825 20.1566 24.1253 18.1217 24.1253 16M21.7822 21.6569L26.024 25.8987M24.1253 16C24.1253 13.8783 23.2825 11.8434 21.7822 10.3431M24.1253 16H30.1253M21.7822 10.3431C20.2819 8.84285 18.2471 8 16.1253 8M21.7822 10.3431L26.024 6.10133M16.1253 8C14.0036 8 11.9688 8.84285 10.4685 10.3431M16.1253 8V2M10.4685 10.3431C8.96819 11.8434 8.12534 13.8783 8.12534 16M10.4685 10.3431L6.22667 6.10133M8.12534 16C8.12534 18.1217 8.96819 20.1566 10.4685 21.6569M8.12534 16H2.12534M10.4685 21.6569L6.22667 25.8987M14.792 2H17.4587M25.0827 5.15733L26.968 7.04267M30.1253 14.6667V17.3333M26.968 24.9573L25.0827 26.8427M17.4587 30H14.792M7.168 26.8427L5.28267 24.9573M2.12534 17.3333V14.6667M5.28267 7.04267L7.168 5.15733M48.3893 23.2667C50.127 24.7403 51.5377 26.5607 52.531 28.6113C53.5242 30.6618 54.0781 32.8972 54.1572 35.1743C54.2363 37.4513 53.8388 39.7198 52.9902 41.8343C52.1416 43.9488 50.8606 45.8627 49.2293 47.4533C46.0414 50.5652 41.763 52.3072 37.308 52.3072C32.853 52.3072 28.5746 50.5652 25.3867 47.4533C23.4765 45.584 22.0505 43.2775 21.232 40.7333M51.1147 12.9627L58.0213 6.05067M58.0213 6.05067L54.168 2.19733M58.0213 6.05067L61.8747 9.904M15.4587 40.7333H28.9467M17.56 60H54.168M36.8267 52.2933V60M43.0693 28.4773C42.6144 28.9225 42.0032 29.1717 41.3667 29.1717C40.7302 29.1717 40.119 28.9225 39.664 28.4773L36.2667 25.1333C36.0433 24.9159 35.8658 24.6559 35.7445 24.3688C35.6233 24.0816 35.5609 23.773 35.5609 23.4613C35.5609 23.1496 35.6233 22.8411 35.7445 22.5539C35.8658 22.2667 36.0433 22.0068 36.2667 21.7893L46.4853 11.752C46.941 11.3081 47.5519 11.0597 48.188 11.0597C48.8241 11.0597 49.435 11.3081 49.8907 11.752L53.296 15.0987C53.5194 15.3161 53.6969 15.5761 53.8181 15.8632C53.9393 16.1504 54.0018 16.459 54.0018 16.7707C54.0018 17.0824 53.9393 17.3909 53.8181 17.6781C53.6969 17.9653 53.5194 18.2252 53.296 18.4427L43.0693 28.4773Z" stroke="#0E2C72" stroke-width="3.8" stroke-linecap="round" stroke-linejoin="round"/>
</svg>
