<svg width="10" height="10" viewBox="0 0 10 10" fill="none" xmlns="http://www.w3.org/2000/svg">
<path d="M9.41592 1.46217C9.49654 1.38438 9.56087 1.2913 9.60513 1.18838C9.6494 1.08546 9.67273 0.974759 9.67376 0.862727C9.67478 0.750695 9.65349 0.639581 9.61111 0.535868C9.56873 0.432154 9.50613 0.337919 9.42695 0.25866C9.34776 0.179401 9.25358 0.116706 9.14991 0.0742322C9.04624 0.0317588 8.93514 0.0103582 8.82311 0.0112786C8.71108 0.0121989 8.60035 0.0354219 8.49739 0.0795928C8.39443 0.123764 8.30129 0.187998 8.22342 0.268547L4.84167 3.64917L1.46105 0.268547C1.3838 0.185649 1.29065 0.119159 1.18715 0.0730434C1.08365 0.0269274 0.971925 0.00213019 0.858635 0.00013131C0.745344 -0.00186757 0.632811 0.0189729 0.52775 0.0614091C0.422688 0.103845 0.32725 0.167008 0.247129 0.247129C0.167008 0.32725 0.103845 0.422687 0.0614091 0.527749C0.0189729 0.632811 -0.00186757 0.745344 0.00013131 0.858635C0.00213019 0.971926 0.0269275 1.08365 0.0730434 1.18715C0.119159 1.29065 0.185649 1.3838 0.268547 1.46105L3.64692 4.8428L0.266297 8.22342C0.117257 8.38337 0.0361183 8.59492 0.039975 8.81351C0.0438317 9.0321 0.132383 9.24065 0.286973 9.39524C0.441562 9.54983 0.65012 9.63839 0.868709 9.64224C1.0873 9.6461 1.29885 9.56496 1.4588 9.41592L4.84167 6.0353L8.2223 9.41705C8.38225 9.56609 8.5938 9.64723 8.81239 9.64337C9.03098 9.63951 9.23953 9.55096 9.39412 9.39637C9.54871 9.24178 9.63726 9.03322 9.64112 8.81463C9.64498 8.59604 9.56384 8.38449 9.4148 8.22455L6.03642 4.8428L9.41592 1.46217Z" fill="white"/>
</svg>
